<svg version="1.1" id="Layer_1" xmlns="http://www.w3.org/2000/svg" xmlns:xlink="http://www.w3.org/1999/xlink" x="0px" y="0px"
	 width="100%" viewBox="0 0 872 182" enable-background="new 0 0 872 182" xml:space="preserve">
<path fill="#000000" opacity="1.000000" stroke="none" 
	d="
M637.000000,183.000000 
	C424.716858,183.000000 212.933731,183.000000 1.075303,183.000000 
	C1.075303,122.397995 1.075303,61.795864 1.075303,1.096869 
	C291.666656,1.096869 582.333313,1.096869 872.971802,1.096869 
	C872.971802,61.732998 872.971802,122.366508 872.971802,183.000000 
	C794.462463,183.000000 715.981201,183.000000 637.000000,183.000000 
M432.292664,170.229980 
	C432.531555,167.925659 432.976318,165.621552 432.978821,163.316971 
	C433.023773,121.716682 433.015289,80.116325 433.018280,38.515991 
	C433.018372,37.079136 433.018311,35.642284 433.018311,34.205429 
	C432.677643,34.218246 432.337006,34.231060 431.996338,34.243877 
	C431.996338,79.827972 431.996338,125.412071 431.059967,170.981506 
	C423.714813,170.981506 416.369690,170.981506 409.024536,170.981506 
	C409.041473,171.475082 409.058411,171.968643 409.075378,172.462219 
	C416.717163,171.975571 424.358978,171.488922 432.292664,170.229980 
M157.037613,10.168080 
	C157.103745,11.393450 157.169876,12.618820 157.236008,13.844190 
	C158.715515,5.048575 158.715485,5.037034 167.674316,5.019140 
	C175.775269,5.002960 183.876282,5.015723 191.977264,5.015723 
	C181.872101,4.080805 171.770386,4.040484 161.669296,4.103361 
	C158.277298,4.124475 157.097107,6.324114 157.037613,10.168080 
M112.951706,5.013499 
	C114.234856,4.917036 115.517998,4.820573 116.801147,4.724110 
	C116.783707,4.584025 116.766266,4.443939 116.748825,4.303854 
	C105.890945,4.303854 95.033066,4.303854 84.175194,4.303854 
	C84.176178,4.540294 84.177155,4.776734 84.178139,5.013174 
	C93.484001,5.013174 102.789864,5.013174 112.951706,5.013499 
M26.478464,3.999644 
	C19.711376,3.999644 12.944289,3.999644 6.177201,3.999644 
	C6.185577,4.220588 6.193954,4.441533 6.202330,4.662478 
	C16.744553,4.662478 27.286777,4.662478 37.829002,4.662478 
	C37.827114,4.439767 37.825226,4.217056 37.823334,3.994344 
	C34.370464,3.994344 30.917591,3.994344 26.478464,3.999644 
M570.984192,67.327538 
	C571.371704,65.089355 571.127563,61.372437 572.263855,60.887001 
	C575.841614,59.358540 579.937744,59.043400 583.285645,58.368916 
	C570.406799,56.621109 567.375610,59.898106 570.978577,73.416786 
	C570.978577,71.139221 570.978577,69.656059 570.984192,67.327538 
M851.035522,170.930573 
	C849.703308,171.036087 848.371094,171.141602 847.038879,171.247116 
	C847.061462,171.424530 847.084045,171.601944 847.106567,171.779358 
	C854.094238,171.779358 861.081909,171.779358 868.069580,171.779358 
	C868.073303,171.496109 868.077026,171.212860 868.080811,170.929611 
	C862.685303,170.929611 857.289795,170.929611 851.035522,170.930573 
M289.375427,170.971146 
	C284.982544,170.971146 280.589630,170.971146 276.196747,170.971146 
	C276.213379,171.189255 276.230011,171.407349 276.246643,171.625458 
	C283.078186,171.625458 289.909729,171.625458 296.741272,171.625458 
	C296.735291,171.407211 296.729340,171.188950 296.723389,170.970703 
	C294.585175,170.970703 292.446930,170.970703 289.375427,170.971146 
M634.466370,58.984634 
	C635.266296,58.926872 636.066223,58.869110 636.866150,58.811348 
	C636.859314,58.659931 636.852417,58.508518 636.845520,58.357105 
	C629.994507,58.357105 623.143494,58.357105 616.292419,58.357105 
	C616.293213,58.567890 616.293945,58.778679 616.294678,58.989464 
	C622.100891,58.989464 627.907043,58.989464 634.466370,58.984634 
M863.928467,58.014988 
	C858.656616,58.014988 853.384766,58.014988 848.112915,58.014988 
	C848.118408,58.213451 848.123962,58.411915 848.129517,58.610378 
	C854.650574,58.610378 861.171692,58.610378 867.692749,58.610378 
	C867.689514,58.412579 867.686340,58.214783 867.683105,58.016983 
	C866.693970,58.016983 865.704773,58.016983 863.928467,58.014988 
M785.315613,57.976963 
	C781.091675,57.976963 776.867798,57.976963 772.643860,57.976963 
	C772.671143,58.294319 772.698425,58.611679 772.725708,58.929035 
	C779.113464,58.929035 785.501221,58.929035 791.888977,58.929035 
	C791.890747,58.611839 791.892578,58.294640 791.894409,57.977444 
	C790.003601,57.977444 788.112854,57.977444 785.315613,57.976963 
M792.502502,172.053528 
	C793.313232,171.924683 794.123962,171.795837 794.934692,171.666977 
	C794.901062,171.534225 794.867371,171.401459 794.833740,171.268707 
	C788.232239,171.268707 781.630737,171.268707 775.029175,171.268707 
	C775.029968,171.533310 775.030701,171.797928 775.031433,172.062531 
	C780.601257,172.062531 786.171021,172.062531 792.502502,172.053528 
M555.163086,172.014740 
	C555.775024,171.919128 556.386902,171.823502 556.998840,171.727875 
	C556.985596,171.582108 556.972351,171.436325 556.959167,171.290558 
	C550.688538,171.290558 544.417969,171.290558 538.147400,171.290558 
	C538.146118,171.536179 538.144836,171.781784 538.143616,172.027405 
	C543.584656,172.027405 549.025696,172.027405 555.163086,172.014740 
M559.463318,167.480301 
	C559.463318,167.480301 559.522400,167.466492 559.463318,167.480301 
M797.470947,58.514400 
	C797.470947,58.514400 797.514893,58.501637 797.470947,58.514400 
z"/>
<path fill="#0D0D0D" opacity="1.000000" stroke="none" 
	d="
M431.996338,170.996170 
	C431.996338,125.412071 431.996338,79.827972 431.996338,34.243877 
	C432.337006,34.231060 432.677643,34.218246 433.018311,34.205429 
	C433.018311,35.642284 433.018372,37.079136 433.018280,38.515991 
	C433.015289,80.116325 433.023773,121.716682 432.978821,163.316971 
	C432.976318,165.621552 432.531555,167.925659 432.146332,170.614990 
	C432.000000,171.000000 431.996338,170.996170 431.996338,170.996170 
z"/>
<path fill="#0D0D0D" opacity="1.000000" stroke="none" 
	d="
M157.049530,9.782259 
	C157.097107,6.324114 158.277298,4.124475 161.669296,4.103361 
	C171.770386,4.040484 181.872101,4.080805 191.977264,5.015723 
	C183.876282,5.015723 175.775269,5.002960 167.674316,5.019140 
	C158.715485,5.037034 158.715515,5.048575 157.236008,13.844190 
	C157.169876,12.618820 157.103745,11.393450 157.049530,9.782259 
z"/>
<path fill="#0D0D0D" opacity="1.000000" stroke="none" 
	d="
M112.523712,5.013337 
	C102.789864,5.013174 93.484001,5.013174 84.178139,5.013174 
	C84.177155,4.776734 84.176178,4.540294 84.175194,4.303854 
	C95.033066,4.303854 105.890945,4.303854 116.748825,4.303854 
	C116.766266,4.443939 116.783707,4.584025 116.801147,4.724110 
	C115.517998,4.820573 114.234856,4.917036 112.523712,5.013337 
z"/>
<path fill="#0D0D0D" opacity="1.000000" stroke="none" 
	d="
M26.971592,3.996994 
	C30.917591,3.994344 34.370464,3.994344 37.823334,3.994344 
	C37.825226,4.217056 37.827114,4.439767 37.829002,4.662478 
	C27.286777,4.662478 16.744553,4.662478 6.202330,4.662478 
	C6.193954,4.441533 6.185577,4.220588 6.177201,3.999644 
	C12.944289,3.999644 19.711376,3.999644 26.971592,3.996994 
z"/>
<path fill="#0D0D0D" opacity="1.000000" stroke="none" 
	d="
M570.981384,67.750214 
	C570.978577,69.656059 570.978577,71.139221 570.978577,73.416786 
	C567.375610,59.898106 570.406799,56.621109 583.285645,58.368916 
	C579.937744,59.043400 575.841614,59.358540 572.263855,60.887001 
	C571.127563,61.372437 571.371704,65.089355 570.981384,67.750214 
z"/>
<path fill="#0D0D0D" opacity="1.000000" stroke="none" 
	d="
M851.464905,170.930084 
	C857.289795,170.929611 862.685303,170.929611 868.080811,170.929611 
	C868.077026,171.212860 868.073303,171.496109 868.069580,171.779358 
	C861.081909,171.779358 854.094238,171.779358 847.106567,171.779358 
	C847.084045,171.601944 847.061462,171.424530 847.038879,171.247116 
	C848.371094,171.141602 849.703308,171.036087 851.464905,170.930084 
z"/>
<path fill="#0D0D0D" opacity="1.000000" stroke="none" 
	d="
M289.842072,170.970917 
	C292.446930,170.970703 294.585175,170.970703 296.723389,170.970703 
	C296.729340,171.188950 296.735291,171.407211 296.741272,171.625458 
	C289.909729,171.625458 283.078186,171.625458 276.246643,171.625458 
	C276.230011,171.407349 276.213379,171.189255 276.196747,170.971146 
	C280.589630,170.971146 284.982544,170.971146 289.842072,170.970917 
z"/>
<path fill="#0D0D0D" opacity="1.000000" stroke="none" 
	d="
M634.089844,58.987049 
	C627.907043,58.989464 622.100891,58.989464 616.294678,58.989464 
	C616.293945,58.778679 616.293213,58.567890 616.292419,58.357105 
	C623.143494,58.357105 629.994507,58.357105 636.845520,58.357105 
	C636.852417,58.508518 636.859314,58.659931 636.866150,58.811348 
	C636.066223,58.869110 635.266296,58.926872 634.089844,58.987049 
z"/>
<path fill="#0D0D0D" opacity="1.000000" stroke="none" 
	d="
M864.322021,58.015984 
	C865.704773,58.016983 866.693970,58.016983 867.683105,58.016983 
	C867.686340,58.214783 867.689514,58.412579 867.692749,58.610378 
	C861.171692,58.610378 854.650574,58.610378 848.129517,58.610378 
	C848.123962,58.411915 848.118408,58.213451 848.112915,58.014988 
	C853.384766,58.014988 858.656616,58.014988 864.322021,58.015984 
z"/>
<path fill="#0D0D0D" opacity="1.000000" stroke="none" 
	d="
M785.768799,57.977203 
	C788.112854,57.977444 790.003601,57.977444 791.894409,57.977444 
	C791.892578,58.294640 791.890747,58.611839 791.888977,58.929035 
	C785.501221,58.929035 779.113464,58.929035 772.725708,58.929035 
	C772.698425,58.611679 772.671143,58.294319 772.643860,57.976963 
	C776.867798,57.976963 781.091675,57.976963 785.768799,57.977203 
z"/>
<path fill="#0D0D0D" opacity="1.000000" stroke="none" 
	d="
M432.000397,171.001144 
	C424.358978,171.488922 416.717163,171.975571 409.075378,172.462219 
	C409.058411,171.968643 409.041473,171.475082 409.024536,170.981506 
	C416.369690,170.981506 423.714813,170.981506 431.528137,170.988831 
	C431.996338,170.996170 432.000000,171.000000 432.000397,171.001144 
z"/>
<path fill="#0D0D0D" opacity="1.000000" stroke="none" 
	d="
M792.121704,172.058029 
	C786.171021,172.062531 780.601257,172.062531 775.031433,172.062531 
	C775.030701,171.797928 775.029968,171.533310 775.029175,171.268707 
	C781.630737,171.268707 788.232239,171.268707 794.833740,171.268707 
	C794.867371,171.401459 794.901062,171.534225 794.934692,171.666977 
	C794.123962,171.795837 793.313232,171.924683 792.121704,172.058029 
z"/>
<path fill="#0D0D0D" opacity="1.000000" stroke="none" 
	d="
M554.814941,172.021072 
	C549.025696,172.027405 543.584656,172.027405 538.143616,172.027405 
	C538.144836,171.781784 538.146118,171.536179 538.147400,171.290558 
	C544.417969,171.290558 550.688538,171.290558 556.959167,171.290558 
	C556.972351,171.436325 556.985596,171.582108 556.998840,171.727875 
	C556.386902,171.823502 555.775024,171.919128 554.814941,172.021072 
z"/>
<path fill="#0D0D0D" opacity="1.000000" stroke="none" 
	d="
M559.492859,167.473389 
	C559.522400,167.466492 559.463318,167.480301 559.492859,167.473389 
z"/>
<path fill="#0D0D0D" opacity="1.000000" stroke="none" 
	d="
M797.492920,58.508018 
	C797.514893,58.501637 797.470947,58.514400 797.492920,58.508018 
z"/>
</svg>