<svg version="1.1" id="Layer_1" xmlns="http://www.w3.org/2000/svg" xmlns:xlink="http://www.w3.org/1999/xlink" x="0px" y="0px"
	 width="100%" viewBox="0 0 872 182" enable-background="new 0 0 872 182" xml:space="preserve">
<path fill="#000000" opacity="1.000000" stroke="none" 
	d="
M1.000000,5.000000 
	C1.000000,3.667343 1.000000,2.334686 1.000000,1.027756 
	C291.666656,1.027756 582.333313,1.027756 873.000000,1.027756 
	C873.000000,5.053518 873.000000,9.051523 872.749390,13.834911 
	C862.766296,14.620295 853.033875,14.620295 843.370300,14.620295 
	C843.370300,24.346750 843.370300,33.095364 843.370300,42.000000 
	C853.379395,42.000000 863.189697,42.000000 873.000000,42.000000 
	C873.000000,47.022446 873.000000,52.044895 872.617920,57.881813 
	C862.567078,58.696281 852.898315,58.696281 843.499329,58.696281 
	C843.499329,95.977264 843.499329,133.488480 843.499329,171.000000 
	C853.420105,171.000000 863.210083,171.000000 873.000000,171.000000 
	C873.000000,174.998077 873.000000,178.996155 873.000000,182.962311 
	C582.333313,182.962311 291.666656,182.962311 1.000000,182.962311 
	C1.000000,175.261658 1.000000,167.598709 1.358625,159.167038 
	C2.145058,159.897873 2.848297,161.378159 2.954906,162.900208 
	C3.541804,171.279343 11.285697,179.683655 19.549301,179.903061 
	C31.522720,180.220978 43.510860,179.984482 55.000286,179.984482 
	C55.000286,172.010590 54.931038,164.304169 55.025536,156.599762 
	C55.084869,151.761932 55.569450,146.926178 55.544037,142.091171 
	C55.502983,134.278076 55.007599,126.464981 55.064030,118.654480 
	C55.112930,111.887024 55.919456,105.123093 55.917301,98.357758 
	C55.915119,91.511948 55.046799,84.665260 55.072472,77.820892 
	C55.106297,68.804176 55.897141,59.789207 55.892002,50.773758 
	C55.886665,41.404263 55.204838,32.037216 55.032791,22.665167 
	C54.867771,13.675838 50.761513,6.206549 41.895054,5.319554 
	C28.387890,3.968308 14.643596,4.987453 1.000000,5.000000 
M273.000702,56.500000 
	C273.000702,94.917145 273.000702,133.334290 273.000702,171.962555 
	C281.281921,171.962555 288.933319,171.801208 296.572845,172.032318 
	C300.253235,172.143677 301.025909,170.626083 301.005707,167.296066 
	C300.897888,149.531830 301.035522,131.766281 300.979584,114.001518 
	C300.948120,104.008331 300.662659,94.016197 300.574371,84.022865 
	C300.504395,76.105118 300.560272,68.186249 300.560272,59.728893 
	C301.232147,60.890011 301.676849,61.558392 302.024414,62.273968 
	C309.676392,78.028320 317.330048,93.781891 324.957092,109.548332 
	C331.133789,122.316704 337.222015,135.128189 343.458954,147.866959 
	C346.135834,153.334351 349.089935,158.666000 351.918091,164.059311 
	C352.516052,164.106949 353.113983,164.154572 353.711945,164.202209 
	C355.882385,160.914139 358.428467,157.811401 360.158051,154.305817 
	C367.564514,139.294250 374.734619,124.166039 381.981384,109.075768 
	C384.338043,104.168404 386.638580,99.233963 389.012146,94.334854 
	C394.506012,82.995468 400.028778,71.670113 405.999268,59.394440 
	C405.999268,65.951897 405.912354,71.415916 406.014496,76.876404 
	C406.425903,98.867935 405.422089,120.854797 405.916077,142.851074 
	C406.097656,150.935577 405.689423,159.078995 404.844482,167.121384 
	C404.429138,171.074722 405.668243,172.004944 409.082550,171.967789 
	C414.914001,171.904297 420.770264,171.632858 426.571686,172.056641 
	C431.516418,172.417801 433.110718,171.047012 433.085327,165.807968 
	C432.868835,121.151176 432.962402,76.492874 432.963135,31.835020 
	C432.963226,25.377111 432.963196,18.919205 432.963196,12.235188 
	C422.106903,12.235188 411.699860,12.235188 401.456757,12.235188 
	C385.782990,45.198936 370.203674,77.964005 354.421875,111.154922 
	C349.116730,99.717560 344.128357,88.748535 338.959381,77.865295 
	C329.025970,56.950520 319.011017,36.074303 308.945374,15.222901 
	C308.338867,13.966499 307.007965,12.164324 305.982727,12.143258 
	C295.074554,11.919115 284.160034,12.004120 273.000671,12.004120 
	C273.000671,26.885761 273.000671,41.192883 273.000702,56.500000 
M81.002151,164.219696 
	C82.270943,171.292511 85.989632,176.545593 92.897072,178.853119 
	C95.752754,179.807098 98.976189,179.917801 102.037537,179.952225 
	C112.951645,180.074982 123.867981,180.000229 134.977478,180.000229 
	C134.977478,178.535034 134.981979,177.718613 134.976852,176.902252 
	C134.651581,125.200294 134.397964,73.497704 133.944382,21.796867 
	C133.841599,10.082290 124.875198,4.365601 116.798874,4.118794 
	C105.985046,3.788329 95.152885,4.104749 84.330666,3.973108 
	C81.165161,3.934603 79.649208,4.886918 79.974327,8.249326 
	C80.365425,12.293940 80.762688,16.356121 80.785202,20.412764 
	C80.805099,23.999304 80.067101,27.590710 80.096519,31.176414 
	C80.177589,41.059597 80.529495,50.940220 80.685806,60.823254 
	C80.768478,66.051315 80.619331,71.282646 80.659706,76.511856 
	C80.720383,84.372063 80.908829,92.231476 80.942825,100.091652 
	C80.972038,106.846848 80.892143,113.603050 80.803391,120.358055 
	C80.712669,127.262840 80.423164,134.167358 80.457710,141.070816 
	C80.494865,148.497055 80.807457,155.921921 81.002151,164.219696 
M157.001755,28.500013 
	C157.005600,71.824257 156.904465,115.148956 157.096451,158.472366 
	C157.137909,167.828369 160.801147,175.514893 170.355667,179.083832 
	C170.950012,179.305847 171.500153,179.889587 172.072388,179.891678 
	C184.990341,179.938660 197.908524,179.927780 210.970398,179.927780 
	C210.970398,127.527847 211.158676,75.717117 210.783463,23.910480 
	C210.721573,15.365833 207.246704,6.656140 196.780762,5.405489 
	C183.793747,3.853580 170.480286,5.033628 157.001663,5.033628 
	C157.001663,12.222996 157.001663,19.861515 157.001755,28.500013 
M558.999084,131.500000 
	C558.666504,117.588089 558.831604,103.641693 557.870972,89.773285 
	C556.755676,73.672073 547.310364,63.434410 532.487671,58.068703 
	C521.918274,54.242645 511.073944,53.567760 499.794739,54.834450 
	C484.547272,56.546787 471.896423,62.053947 463.990753,75.690712 
	C460.822998,81.154808 458.864929,87.248192 459.085571,93.478172 
	C465.924286,94.011230 472.153351,94.490631 478.381226,94.984619 
	C481.842285,95.259148 484.272095,95.090752 485.408722,90.519081 
	C486.951416,84.314140 491.416443,79.925949 498.001678,78.553474 
	C500.547302,78.022926 503.245941,78.277863 505.852600,77.980057 
	C519.041809,76.473198 529.381836,82.026382 531.815674,97.479683 
	C532.260254,100.302345 532.183472,103.330711 527.346375,103.114334 
	C518.364929,102.712585 509.352356,103.051270 500.353485,102.984650 
	C491.321625,102.917793 482.778412,104.518654 474.218872,107.802307 
	C457.190796,114.334747 448.755798,132.109238 453.854706,149.512726 
	C457.696564,162.625763 466.636627,169.696030 479.244659,173.022415 
	C492.750580,176.585724 506.131866,176.766693 518.571045,169.618317 
	C523.713745,166.662964 528.061218,162.323929 532.802795,158.588638 
	C533.197144,161.743042 533.417175,165.126068 534.129700,168.401978 
	C534.413818,169.708252 535.751282,171.767166 536.668640,171.799500 
	C544.407898,172.072388 552.161011,171.955124 558.999146,171.955124 
	C558.999146,158.326553 558.999146,145.413269 558.999084,131.500000 
M723.189026,57.060341 
	C712.747681,53.509537 702.067383,52.864376 691.320496,55.053280 
	C674.940613,58.389530 662.320251,67.142731 654.019043,81.848518 
	C647.046631,94.200455 645.231140,107.567284 645.992310,121.481529 
	C646.771545,135.725189 651.406677,148.579514 661.463257,158.717743 
	C673.702209,171.056168 689.028931,175.559189 706.364014,175.131332 
	C726.358154,174.637848 741.626099,166.267273 752.534851,149.814102 
	C754.757568,146.461685 755.845093,142.356537 757.712280,138.000443 
	C748.562805,138.000443 740.413635,137.891983 732.273865,138.119904 
	C731.081970,138.153290 729.853577,139.700562 728.782227,140.697922 
	C725.487061,143.765564 722.592590,147.388611 718.933228,149.912598 
	C712.419739,154.405197 704.676270,153.612671 697.406799,152.869614 
	C685.127441,151.614487 672.915222,138.448685 674.459900,124.946587 
	C702.486450,124.946587 730.558289,124.946587 759.610535,124.946587 
	C758.913574,115.698364 759.232605,106.667053 757.383789,98.103790 
	C753.271423,79.056068 742.741638,64.664925 723.189026,57.060341 
M620.712524,148.195618 
	C615.685181,146.729736 614.022522,142.930725 614.009277,138.184372 
	C613.962280,121.364738 613.974731,104.544785 614.039490,87.725235 
	C614.045166,86.238113 614.593811,84.753067 614.913940,83.148079 
	C614.708191,83.075760 614.059753,82.847878 613.411316,82.620003 
	C613.444702,82.402115 613.478088,82.184235 613.511475,81.966354 
	C622.542419,81.966354 631.573425,81.966354 640.504639,81.966354 
	C640.504639,73.869194 640.504639,66.130348 640.504639,58.046677 
	C631.684143,58.046677 622.568665,58.046677 613.918396,58.046677 
	C613.918396,47.477749 614.004150,37.245956 613.781555,27.020863 
	C613.760010,26.033785 611.856384,24.293070 610.775269,24.252045 
	C603.509705,23.976334 596.226746,23.952330 588.959290,24.171997 
	C587.986328,24.201405 586.269897,26.044626 586.249207,27.075020 
	C586.044739,37.263866 586.125488,47.458435 586.125488,58.059437 
	C581.251953,58.059437 575.825928,58.059437 570.237671,58.059437 
	C570.237671,66.789452 570.237671,75.117538 570.237671,82.721527 
	C575.750610,82.721527 581.131165,82.721527 586.998962,82.721527 
	C586.998962,85.861229 586.998962,89.428207 586.999023,92.995186 
	C586.999268,111.646866 586.963440,130.298630 587.014282,148.950180 
	C587.041687,159.020844 595.686279,169.364441 605.247192,172.070816 
	C617.456360,175.526810 629.205688,174.093399 640.839722,170.481766 
	C640.839722,162.520844 640.839722,154.880005 640.839722,147.986771 
	C634.236389,148.268646 627.770447,148.544662 620.712524,148.195618 
M771.028076,163.821609 
	C771.505676,166.469742 771.983276,169.117859 772.493164,171.945251 
	C779.941895,171.945251 787.259094,171.778610 794.563171,172.015381 
	C798.229065,172.134201 799.076355,170.617264 799.028809,167.295639 
	C798.885864,157.309921 798.994995,147.320648 798.999268,137.332764 
	C799.003357,127.705177 798.400757,118.030159 799.158875,108.462685 
	C799.998230,97.869865 804.055969,88.226616 815.094604,84.681961 
	C821.219727,82.715096 828.110229,83.131813 834.871033,82.452545 
	C834.871033,73.803459 834.871033,64.174728 834.871033,54.571869 
	C822.676025,51.546757 806.013794,57.805965 797.856812,73.648811 
	C797.856812,67.731087 797.856812,62.925068 797.856812,58.221264 
	C788.664429,58.221264 780.055725,58.221264 771.003174,58.221264 
	C771.003174,76.008011 770.990540,93.596924 771.031067,111.185707 
	C771.033813,112.384583 771.640076,113.586411 771.617493,114.780296 
	C771.468079,122.690918 771.086060,130.599091 771.048157,138.509338 
	C771.008911,146.696625 771.273621,154.885361 771.028076,163.821609 
z"/>
<path fill="#FFFFFF" opacity="1.000000" stroke="none" 
	d="
M1.000000,5.468657 
	C14.643596,4.987453 28.387890,3.968308 41.895054,5.319554 
	C50.761513,6.206549 54.867771,13.675838 55.032791,22.665167 
	C55.204838,32.037216 55.886665,41.404263 55.892002,50.773758 
	C55.897141,59.789207 55.106297,68.804176 55.072472,77.820892 
	C55.046799,84.665260 55.915119,91.511948 55.917301,98.357758 
	C55.919456,105.123093 55.112930,111.887024 55.064030,118.654480 
	C55.007599,126.464981 55.502983,134.278076 55.544037,142.091171 
	C55.569450,146.926178 55.084869,151.761932 55.025536,156.599762 
	C54.931038,164.304169 55.000286,172.010590 55.000286,179.984482 
	C43.510860,179.984482 31.522720,180.220978 19.549301,179.903061 
	C11.285697,179.683655 3.541804,171.279343 2.954906,162.900208 
	C2.848297,161.378159 2.145058,159.897873 1.358625,158.699158 
	C1.000000,158.555557 1.000000,158.111099 1.309642,157.621796 
	C1.893138,157.061935 2.166992,156.546951 2.440845,156.031967 
	C1.960563,156.021301 1.480282,156.010651 1.000000,156.000000 
	C1.000000,105.979103 1.000000,55.958210 1.000000,5.468657 
z"/>
<path fill="#FEFEFE" opacity="1.000000" stroke="none" 
	d="
M873.000000,170.583344 
	C863.210083,171.000000 853.420105,171.000000 843.499329,171.000000 
	C843.499329,133.488480 843.499329,95.977264 843.499329,58.696281 
	C852.898315,58.696281 862.567078,58.696281 872.617920,58.348141 
	C873.000000,59.714359 873.000000,61.428715 872.690369,63.283142 
	C872.106995,63.938114 871.833191,64.453018 871.559448,64.967926 
	C872.039612,64.978615 872.519836,64.989311 873.000000,65.000000 
	C873.000000,65.750000 873.000000,66.500000 872.673523,67.334320 
	C871.971069,68.149071 871.595032,68.879517 871.219055,69.609955 
	C871.812683,69.739967 872.406372,69.869980 873.000000,70.000000 
	C873.000000,71.714355 873.000000,73.428719 872.643799,75.271057 
	C871.872375,75.897049 871.101440,76.391571 871.096497,76.893600 
	C871.042114,82.442406 871.090576,87.992729 871.217102,93.540237 
	C871.220886,93.706963 872.379700,93.847343 873.000000,94.000000 
	C873.000000,94.444443 873.000000,94.888893 872.690430,95.378204 
	C872.106934,95.938019 871.833130,96.452965 871.559265,96.967903 
	C872.039490,96.978607 872.519775,96.989304 873.000000,97.000000 
	C873.000000,97.750000 873.000000,98.500000 872.672546,99.328911 
	C872.026733,102.318672 871.458313,105.227325 871.432739,108.140739 
	C871.314331,121.597610 871.341003,135.055832 871.394958,148.513245 
	C871.395630,148.677643 872.441833,148.837845 873.000000,149.000000 
	C873.000000,151.041672 873.000000,153.083328 872.679688,155.258179 
	C871.977478,156.124023 871.595581,156.856659 871.213684,157.589310 
	C871.809143,157.726212 872.404541,157.863098 873.000000,158.000000 
	C873.000000,160.041672 873.000000,162.083328 872.682617,164.273346 
	C872.090881,164.980545 871.816467,165.539413 871.542053,166.098267 
	C872.028015,166.065521 872.514038,166.032761 873.000000,166.000000 
	C873.000000,167.388885 873.000000,168.777786 873.000000,170.583344 
z"/>
<path fill="#FEFEFE" opacity="1.000000" stroke="none" 
	d="
M873.000000,41.531342 
	C863.189697,42.000000 853.379395,42.000000 843.370300,42.000000 
	C843.370300,33.095364 843.370300,24.346750 843.370300,14.620295 
	C853.033875,14.620295 862.766296,14.620295 872.749390,14.310147 
	C873.000000,23.020895 873.000000,32.041790 873.000000,41.531342 
z"/>
<path fill="#000000" opacity="1.000000" stroke="none" 
	d="
M873.000000,148.531342 
	C872.441833,148.837845 871.395630,148.677643 871.394958,148.513245 
	C871.341003,135.055832 871.314331,121.597610 871.432739,108.140739 
	C871.458313,105.227325 872.026733,102.318672 872.672546,99.703911 
	C873.000000,116.020897 873.000000,132.041794 873.000000,148.531342 
z"/>
<path fill="#000000" opacity="1.000000" stroke="none" 
	d="
M873.000000,93.532059 
	C872.379700,93.847343 871.220886,93.706963 871.217102,93.540237 
	C871.090576,87.992729 871.042114,82.442406 871.096497,76.893600 
	C871.101440,76.391571 871.872375,75.897049 872.643799,75.699524 
	C873.000000,81.688042 873.000000,87.376083 873.000000,93.532059 
z"/>
<path fill="#000000" opacity="1.000000" stroke="none" 
	d="
M873.000000,69.666664 
	C872.406372,69.869980 871.812683,69.739967 871.219055,69.609955 
	C871.595032,68.879517 871.971069,68.149071 872.673523,67.709320 
	C873.000000,68.444443 873.000000,68.888893 873.000000,69.666664 
z"/>
<path fill="#000000" opacity="1.000000" stroke="none" 
	d="
M873.000000,157.666656 
	C872.404541,157.863098 871.809143,157.726212 871.213684,157.589310 
	C871.595581,156.856659 871.977478,156.124023 872.679688,155.695679 
	C873.000000,156.444443 873.000000,156.888901 873.000000,157.666656 
z"/>
<path fill="#000000" opacity="1.000000" stroke="none" 
	d="
M873.000000,96.750000 
	C872.519775,96.989304 872.039490,96.978607 871.559265,96.967903 
	C871.833130,96.452965 872.106934,95.938019 872.690430,95.711540 
	C873.000000,96.000000 873.000000,96.500000 873.000000,96.750000 
z"/>
<path fill="#000000" opacity="1.000000" stroke="none" 
	d="
M873.000000,64.750000 
	C872.519836,64.989311 872.039612,64.978615 871.559448,64.967926 
	C871.833191,64.453018 872.106995,63.938114 872.690369,63.711609 
	C873.000000,64.000000 873.000000,64.500000 873.000000,64.750000 
z"/>
<path fill="#000000" opacity="1.000000" stroke="none" 
	d="
M1.000000,156.250000 
	C1.480282,156.010651 1.960563,156.021301 2.440845,156.031967 
	C2.166992,156.546951 1.893138,157.061935 1.309642,157.288452 
	C1.000000,157.000000 1.000000,156.500000 1.000000,156.250000 
z"/>
<path fill="#000000" opacity="1.000000" stroke="none" 
	d="
M873.000000,165.750000 
	C872.514038,166.032761 872.028015,166.065521 871.542053,166.098267 
	C871.816467,165.539413 872.090881,164.980545 872.682617,164.710846 
	C873.000000,165.000000 873.000000,165.500000 873.000000,165.750000 
z"/>
<path fill="#FFFFFF" opacity="1.000000" stroke="none" 
	d="
M273.000671,56.000000 
	C273.000671,41.192883 273.000671,26.885761 273.000671,12.004120 
	C284.160034,12.004120 295.074554,11.919115 305.982727,12.143258 
	C307.007965,12.164324 308.338867,13.966499 308.945374,15.222901 
	C319.011017,36.074303 329.025970,56.950520 338.959381,77.865295 
	C344.128357,88.748535 349.116730,99.717560 354.421875,111.154922 
	C370.203674,77.964005 385.782990,45.198936 401.456757,12.235188 
	C411.699860,12.235188 422.106903,12.235188 432.963196,12.235188 
	C432.963196,18.919205 432.963226,25.377111 432.963135,31.835020 
	C432.962402,76.492874 432.868835,121.151176 433.085327,165.807968 
	C433.110718,171.047012 431.516418,172.417801 426.571686,172.056641 
	C420.770264,171.632858 414.914001,171.904297 409.082550,171.967789 
	C405.668243,172.004944 404.429138,171.074722 404.844482,167.121384 
	C405.689423,159.078995 406.097656,150.935577 405.916077,142.851074 
	C405.422089,120.854797 406.425903,98.867935 406.014496,76.876404 
	C405.912354,71.415916 405.999268,65.951897 405.999268,59.394440 
	C400.028778,71.670113 394.506012,82.995468 389.012146,94.334854 
	C386.638580,99.233963 384.338043,104.168404 381.981384,109.075768 
	C374.734619,124.166039 367.564514,139.294250 360.158051,154.305817 
	C358.428467,157.811401 355.882385,160.914139 353.711945,164.202209 
	C353.113983,164.154572 352.516052,164.106949 351.918091,164.059311 
	C349.089935,158.666000 346.135834,153.334351 343.458954,147.866959 
	C337.222015,135.128189 331.133789,122.316704 324.957092,109.548332 
	C317.330048,93.781891 309.676392,78.028320 302.024414,62.273968 
	C301.676849,61.558392 301.232147,60.890011 300.560272,59.728893 
	C300.560272,68.186249 300.504395,76.105118 300.574371,84.022865 
	C300.662659,94.016197 300.948120,104.008331 300.979584,114.001518 
	C301.035522,131.766281 300.897888,149.531830 301.005707,167.296066 
	C301.025909,170.626083 300.253235,172.143677 296.572845,172.032318 
	C288.933319,171.801208 281.281921,171.962555 273.000702,171.962555 
	C273.000702,133.334290 273.000702,94.917145 273.000671,56.000000 
z"/>
<path fill="#FFFFFF" opacity="1.000000" stroke="none" 
	d="
M81.001007,163.783539 
	C80.807457,155.921921 80.494865,148.497055 80.457710,141.070816 
	C80.423164,134.167358 80.712669,127.262840 80.803391,120.358055 
	C80.892143,113.603050 80.972038,106.846848 80.942825,100.091652 
	C80.908829,92.231476 80.720383,84.372063 80.659706,76.511856 
	C80.619331,71.282646 80.768478,66.051315 80.685806,60.823254 
	C80.529495,50.940220 80.177589,41.059597 80.096519,31.176414 
	C80.067101,27.590710 80.805099,23.999304 80.785202,20.412764 
	C80.762688,16.356121 80.365425,12.293940 79.974327,8.249326 
	C79.649208,4.886918 81.165161,3.934603 84.330666,3.973108 
	C95.152885,4.104749 105.985046,3.788329 116.798874,4.118794 
	C124.875198,4.365601 133.841599,10.082290 133.944382,21.796867 
	C134.397964,73.497704 134.651581,125.200294 134.976852,176.902252 
	C134.981979,177.718613 134.977478,178.535034 134.977478,180.000229 
	C123.867981,180.000229 112.951645,180.074982 102.037537,179.952225 
	C98.976189,179.917801 95.752754,179.807098 92.897072,178.853119 
	C85.989632,176.545593 82.270943,171.292511 81.001007,163.783539 
z"/>
<path fill="#FFFFFF" opacity="1.000000" stroke="none" 
	d="
M157.001709,28.000025 
	C157.001663,19.861515 157.001663,12.222996 157.001663,5.033628 
	C170.480286,5.033628 183.793747,3.853580 196.780762,5.405489 
	C207.246704,6.656140 210.721573,15.365833 210.783463,23.910480 
	C211.158676,75.717117 210.970398,127.527847 210.970398,179.927780 
	C197.908524,179.927780 184.990341,179.938660 172.072388,179.891678 
	C171.500153,179.889587 170.950012,179.305847 170.355667,179.083832 
	C160.801147,175.514893 157.137909,167.828369 157.096451,158.472366 
	C156.904465,115.148956 157.005600,71.824257 157.001709,28.000025 
z"/>
<path fill="#FFFFFF" opacity="1.000000" stroke="none" 
	d="
M558.999146,132.000000 
	C558.999146,145.413269 558.999146,158.326553 558.999146,171.955124 
	C552.161011,171.955124 544.407898,172.072388 536.668640,171.799500 
	C535.751282,171.767166 534.413818,169.708252 534.129700,168.401978 
	C533.417175,165.126068 533.197144,161.743042 532.802795,158.588638 
	C528.061218,162.323929 523.713745,166.662964 518.571045,169.618317 
	C506.131866,176.766693 492.750580,176.585724 479.244659,173.022415 
	C466.636627,169.696030 457.696564,162.625763 453.854706,149.512726 
	C448.755798,132.109238 457.190796,114.334747 474.218872,107.802307 
	C482.778412,104.518654 491.321625,102.917793 500.353485,102.984650 
	C509.352356,103.051270 518.364929,102.712585 527.346375,103.114334 
	C532.183472,103.330711 532.260254,100.302345 531.815674,97.479683 
	C529.381836,82.026382 519.041809,76.473198 505.852600,77.980057 
	C503.245941,78.277863 500.547302,78.022926 498.001678,78.553474 
	C491.416443,79.925949 486.951416,84.314140 485.408722,90.519081 
	C484.272095,95.090752 481.842285,95.259148 478.381226,94.984619 
	C472.153351,94.490631 465.924286,94.011230 459.085571,93.478172 
	C458.864929,87.248192 460.822998,81.154808 463.990753,75.690712 
	C471.896423,62.053947 484.547272,56.546787 499.794739,54.834450 
	C511.073944,53.567760 521.918274,54.242645 532.487671,58.068703 
	C547.310364,63.434410 556.755676,73.672073 557.870972,89.773285 
	C558.831604,103.641693 558.666504,117.588089 558.999146,132.000000 
M507.161469,153.005737 
	C524.948608,150.423508 533.629761,139.553680 531.603760,122.003326 
	C519.707275,122.003326 507.754883,121.802231 495.817902,122.142387 
	C492.770874,122.229210 489.569794,123.646843 486.789917,125.116035 
	C478.245483,129.631836 479.631866,144.810181 485.950226,149.190247 
	C492.446259,153.693466 499.285431,152.824509 507.161469,153.005737 
z"/>
<path fill="#FFFFFF" opacity="1.000000" stroke="none" 
	d="
M723.543091,57.250462 
	C742.741638,64.664925 753.271423,79.056068 757.383789,98.103790 
	C759.232605,106.667053 758.913574,115.698364 759.610535,124.946587 
	C730.558289,124.946587 702.486450,124.946587 674.459900,124.946587 
	C672.915222,138.448685 685.127441,151.614487 697.406799,152.869614 
	C704.676270,153.612671 712.419739,154.405197 718.933228,149.912598 
	C722.592590,147.388611 725.487061,143.765564 728.782227,140.697922 
	C729.853577,139.700562 731.081970,138.153290 732.273865,138.119904 
	C740.413635,137.891983 748.562805,138.000443 757.712280,138.000443 
	C755.845093,142.356537 754.757568,146.461685 752.534851,149.814102 
	C741.626099,166.267273 726.358154,174.637848 706.364014,175.131332 
	C689.028931,175.559189 673.702209,171.056168 661.463257,158.717743 
	C651.406677,148.579514 646.771545,135.725189 645.992310,121.481529 
	C645.231140,107.567284 647.046631,94.200455 654.019043,81.848518 
	C662.320251,67.142731 674.940613,58.389530 691.320496,55.053280 
	C702.067383,52.864376 712.747681,53.509537 723.543091,57.250462 
M690.146301,79.309052 
	C680.671387,84.747749 675.212341,92.756096 674.493225,103.811050 
	C693.263977,103.811050 712.045349,103.811050 731.213501,103.811050 
	C730.278381,95.803535 727.622131,89.062851 721.524963,83.859154 
	C712.273376,75.963333 701.900879,75.591530 690.146301,79.309052 
z"/>
<path fill="#FEFEFE" opacity="1.000000" stroke="none" 
	d="
M621.008545,148.508148 
	C627.770447,148.544662 634.236389,148.268646 640.839722,147.986771 
	C640.839722,154.880005 640.839722,162.520844 640.839722,170.481766 
	C629.205688,174.093399 617.456360,175.526810 605.247192,172.070816 
	C595.686279,169.364441 587.041687,159.020844 587.014282,148.950180 
	C586.963440,130.298630 586.999268,111.646866 586.999023,92.995186 
	C586.998962,89.428207 586.998962,85.861229 586.998962,82.721527 
	C581.131165,82.721527 575.750610,82.721527 570.237671,82.721527 
	C570.237671,75.117538 570.237671,66.789452 570.237671,58.059437 
	C575.825928,58.059437 581.251953,58.059437 586.125488,58.059437 
	C586.125488,47.458435 586.044739,37.263866 586.249207,27.075020 
	C586.269897,26.044626 587.986328,24.201405 588.959290,24.171997 
	C596.226746,23.952330 603.509705,23.976334 610.775269,24.252045 
	C611.856384,24.293070 613.760010,26.033785 613.781555,27.020863 
	C614.004150,37.245956 613.918396,47.477749 613.918396,58.046677 
	C622.568665,58.046677 631.684143,58.046677 640.504639,58.046677 
	C640.504639,66.130348 640.504639,73.869194 640.504639,81.966354 
	C631.573425,81.966354 622.542419,81.966354 613.511475,81.966354 
	C613.478088,82.184235 613.444702,82.402115 613.411316,82.620003 
	C614.059753,82.847878 614.708191,83.075760 614.913940,83.148079 
	C614.593811,84.753067 614.045166,86.238113 614.039490,87.725235 
	C613.974731,104.544785 613.962280,121.364738 614.009277,138.184372 
	C614.022522,142.930725 615.685181,146.729736 621.008545,148.508148 
z"/>
<path fill="#FEFEFE" opacity="1.000000" stroke="none" 
	d="
M771.216736,163.447540 
	C771.273621,154.885361 771.008911,146.696625 771.048157,138.509338 
	C771.086060,130.599091 771.468079,122.690918 771.617493,114.780296 
	C771.640076,113.586411 771.033813,112.384583 771.031067,111.185707 
	C770.990540,93.596924 771.003174,76.008011 771.003174,58.221264 
	C780.055725,58.221264 788.664429,58.221264 797.856812,58.221264 
	C797.856812,62.925068 797.856812,67.731087 797.856812,73.648811 
	C806.013794,57.805965 822.676025,51.546757 834.871033,54.571869 
	C834.871033,64.174728 834.871033,73.803459 834.871033,82.452545 
	C828.110229,83.131813 821.219727,82.715096 815.094604,84.681961 
	C804.055969,88.226616 799.998230,97.869865 799.158875,108.462685 
	C798.400757,118.030159 799.003357,127.705177 798.999268,137.332764 
	C798.994995,147.320648 798.885864,157.309921 799.028809,167.295639 
	C799.076355,170.617264 798.229065,172.134201 794.563171,172.015381 
	C787.259094,171.778610 779.941895,171.945251 772.493164,171.945251 
	C771.983276,169.117859 771.505676,166.469742 771.216736,163.447540 
z"/>
<path fill="#000000" opacity="1.000000" stroke="none" 
	d="
M506.696472,153.009674 
	C499.285431,152.824509 492.446259,153.693466 485.950226,149.190247 
	C479.631866,144.810181 478.245483,129.631836 486.789917,125.116035 
	C489.569794,123.646843 492.770874,122.229210 495.817902,122.142387 
	C507.754883,121.802231 519.707275,122.003326 531.603760,122.003326 
	C533.629761,139.553680 524.948608,150.423508 506.696472,153.009674 
z"/>
<path fill="#000000" opacity="1.000000" stroke="none" 
	d="
M690.520752,79.164398 
	C701.900879,75.591530 712.273376,75.963333 721.524963,83.859154 
	C727.622131,89.062851 730.278381,95.803535 731.213501,103.811050 
	C712.045349,103.811050 693.263977,103.811050 674.493225,103.811050 
	C675.212341,92.756096 680.671387,84.747749 690.520752,79.164398 
z"/>
</svg>